<?xml version="1.0" encoding="UTF-8" standalone="no"?>
<!-- Created with Inkscape (http://www.inkscape.org/) -->

<svg
   xmlns:dc="http://purl.org/dc/elements/1.1/"
   xmlns:cc="http://creativecommons.org/ns#"
   xmlns:rdf="http://www.w3.org/1999/02/22-rdf-syntax-ns#"
   xmlns:svg="http://www.w3.org/2000/svg"
   xmlns="http://www.w3.org/2000/svg"
   xmlns:sodipodi="http://sodipodi.sourceforge.net/DTD/sodipodi-0.dtd"
   xmlns:inkscape="http://www.inkscape.org/namespaces/inkscape"
   width="85.602005mm"
   height="11.286133mm"
   viewBox="0 0 85.602005 11.286133"
   version="1.1"
   id="svg8"
   inkscape:version="0.92.4 (5da689c313, 2019-01-14)"
   sodipodi:docname="logo.svg"
   inkscape:export-filename="/home/alex/dev/projects/arabify/logo.png"
   inkscape:export-xdpi="96"
   inkscape:export-ydpi="96">
  <defs
     id="defs2" />
  <sodipodi:namedview
     id="base"
     pagecolor="#ffffff"
     bordercolor="#666666"
     borderopacity="1.0"
     inkscape:pageopacity="0.0"
     inkscape:pageshadow="2"
     inkscape:zoom="0.98994949"
     inkscape:cx="116.50768"
     inkscape:cy="29.899126"
     inkscape:document-units="mm"
     inkscape:current-layer="text12"
     showgrid="false"
     fit-margin-top="0"
     fit-margin-left="0"
     fit-margin-right="0"
     fit-margin-bottom="0"
     inkscape:window-width="1364"
     inkscape:window-height="737"
     inkscape:window-x="0"
     inkscape:window-y="0"
     inkscape:window-maximized="0" />
  <metadata
     id="metadata5">
    <rdf:RDF>
      <cc:Work
         rdf:about="">
        <dc:format>image/svg+xml</dc:format>
        <dc:type
           rdf:resource="http://purl.org/dc/dcmitype/StillImage" />
        <dc:title></dc:title>
      </cc:Work>
    </rdf:RDF>
  </metadata>
  <g
     inkscape:label="Layer 1"
     inkscape:groupmode="layer"
     id="layer1"
     transform="translate(-59.823594,-65.197238)">
    <g
       aria-label="Беларуская Арабіца"
       style="font-style:normal;font-weight:normal;font-size:10.58333302px;line-height:1.25;font-family:sans-serif;letter-spacing:0px;word-spacing:0px;fill:#cc0000;fill-opacity:1;stroke:none;stroke-width:0.26458332"
       id="text12">
      <path
         d="m 62.28856,69.238335 q 0,0.03101 0.01034,0.05168 0.01034,0.02067 0.05168,0.02067 0.573608,0.02067 0.940511,0.09302 0.366903,0.07235 0.5271,0.124024 0.454752,0.139526 0.775146,0.341064 0.320394,0.201538 0.501261,0.434082 0.108521,0.139527 0.180868,0.299724 0.07235,0.155029 0.118856,0.315226 0.04651,0.160197 0.06201,0.310058 0.02067,0.149862 0.02067,0.273885 0,0.149862 -0.04651,0.366903 -0.04651,0.217041 -0.19637,0.454753 -0.144694,0.232544 -0.413412,0.465088 -0.268717,0.227376 -0.707967,0.397908 -0.1757,0.07235 -0.625285,0.134359 -0.449585,0.06201 -1.09554,0.06201 -0.19637,0 -0.485758,-0.01034 -0.284221,-0.01033 -0.583944,-0.05684 -0.294556,-0.04651 -0.573608,-0.134359 -0.273886,-0.09302 -0.449585,-0.248046 -0.15503,-0.134359 -0.253215,-0.320394 -0.09302,-0.191203 -0.144694,-0.392741 -0.04651,-0.206706 -0.06201,-0.397909 -0.0155,-0.19637 -0.0155,-0.346232 0,-0.05684 0,-0.09302 0,-0.04134 0.01034,-0.113688 0.0155,-0.134359 0.05684,-0.0052 0.08785,0.26355 0.310058,0.444417 0.227377,0.1757 0.511597,0.289388 0.28422,0.113688 0.589111,0.165365 0.310059,0.04651 0.563273,0.04651 0.279053,0 0.599447,-0.0155 0.325562,-0.0155 0.640788,-0.06718 0.315226,-0.05684 0.594279,-0.165364 0.28422,-0.113688 0.480591,-0.304891 0.268717,-0.26355 0.268717,-0.558106 0,-0.155029 -0.06201,-0.299723 -0.05684,-0.144694 -0.160197,-0.268717 -0.103353,-0.124024 -0.242879,-0.217041 -0.139526,-0.09819 -0.299723,-0.15503 -0.07751,-0.02584 -0.196371,-0.06201 -0.118855,-0.03617 -0.289388,-0.06718 -0.165364,-0.03101 -0.387573,-0.05684 -0.222209,-0.02584 -0.506429,-0.03617 -0.04134,0 -0.05168,0.02067 -0.01034,0.02067 -0.01034,0.05168 -0.0155,0.39274 -0.02067,0.862996 -0.0052,0.465088 -0.02067,0.961182 0,0.05684 -0.02584,0.06718 -0.02584,0.0052 -0.06201,-0.0155 l -0.785481,-0.403076 q -0.05685,-0.03617 -0.08268,-0.06718 -0.02584,-0.03101 -0.02584,-0.09302 0.01034,-0.325562 0.0155,-0.661458 0.01033,-0.335897 0.02067,-0.707967 0,-0.05168 -0.05168,-0.05168 l -1.064534,-0.02067 q -0.04134,0 -0.05168,-0.03617 -0.01034,-0.04134 0.02067,-0.06718 l 0.826823,-0.738973 q 0.03617,-0.03101 0.06201,-0.03617 0.02584,-0.0052 0.07752,-0.0052 l 0.155029,-0.01034 q 0.04134,0 0.05168,-0.01033 0.0155,-0.01033 0.02067,-0.06201 0.02584,-0.279052 0.04134,-0.552938 0.02067,-0.279052 0.04651,-0.563273 0.0052,-0.05684 -0.0052,-0.07235 -0.01034,-0.0155 -0.04134,-0.02067 -0.165364,-0.02067 -0.356567,-0.0052 -0.191203,0.0155 -0.37207,0.07235 -0.1757,0.05684 -0.315226,0.165365 -0.139527,0.103353 -0.191203,0.26355 -0.02067,0.05684 -0.06201,0.05168 -0.04134,-0.0052 -0.05168,-0.05684 -0.05684,-0.37207 -0.03617,-0.692464 0.02584,-0.320394 0.1757,-0.558106 0.155029,-0.237711 0.454753,-0.366902 0.304891,-0.134359 0.806152,-0.129191 0.434082,0.01034 0.883667,0.04651 0.449585,0.03617 0.904337,0.05168 0.454753,0.01033 0.909506,-0.02584 0.45992,-0.03617 0.91984,-0.1757 0.07235,-0.02067 0.08785,0.0155 0.02067,0.031 0.0052,0.07751 l -0.403077,1.131714 q -0.02067,0.05684 -0.05684,0.09819 -0.031,0.03617 -0.10852,0.03617 -0.26355,0 -0.537435,-0.02067 -0.268717,-0.02584 -0.537435,-0.03101 -0.26355,-0.0052 -0.527099,0.02584 -0.26355,0.03101 -0.511597,0.139526 -0.06201,0.02584 -0.06718,0.118856 z"
         style="font-style:normal;font-variant:normal;font-weight:normal;font-stretch:normal;font-size:10.58333302px;font-family:Pehlevi;-inkscape-font-specification:'Pehlevi, Normal';font-variant-ligatures:normal;font-variant-caps:normal;font-variant-numeric:normal;font-feature-settings:normal;text-align:start;writing-mode:lr-tb;text-anchor:start;fill:#cc0000;fill-opacity:1;stroke-width:0.26458332"
         id="path4545" />
      <path
         d="m 75.383368,70.726616 q 0.02584,0.02584 0.02584,0.04134 0.0052,0.0155 -0.02067,0.04134 l -0.454752,0.454753 q -0.02584,0.02584 -0.04134,0.02584 -0.0155,-0.0052 -0.04134,-0.03101 l -0.449584,-0.449585 q -0.02584,-0.02584 -0.03101,-0.04134 0,-0.0155 0.02584,-0.04134 L 74.8511,70.271863 q 0.02584,-0.02584 0.04134,-0.02067 0.0155,0 0.04134,0.02584 z m -5.276164,1.715657 q 0.346232,0 0.573609,-0.144694 0.232543,-0.149861 0.382405,-0.361735 0.155029,-0.211873 0.242879,-0.449584 0.08785,-0.237712 0.144694,-0.423747 0.09302,-0.294556 0.1757,-0.470256 0.08785,-0.180867 0.242879,-0.315226 0.05684,-0.05168 0.134359,-0.08785 0.07751,-0.04134 0.160197,-0.06718 0.08785,-0.03101 0.1757,-0.04134 0.08785,-0.0155 0.170532,-0.01034 0.03617,0 0.103353,0.01034 0.06718,0.0052 0.139526,0.02067 0.07235,0.0155 0.139527,0.04134 0.06718,0.02067 0.09819,0.05168 0.08268,0.07235 0.103353,0.191203 0.02584,0.113688 0.0155,0.28422 -0.0052,0.118856 -0.01034,0.232544 -0.0052,0.10852 -0.01034,0.227376 -0.0052,0.113688 -0.0155,0.242879 -0.0052,0.124024 -0.0155,0.279053 -0.01033,0.170532 0.0155,0.294556 0.03101,0.118856 0.134359,0.186035 0.113688,0.06718 0.310059,0.10852 0.19637,0.03617 0.408243,0.05684 0.217041,0.02067 0.418579,0.02584 0.201539,0.0052 0.33073,0.0052 0.454752,0 0.790649,-0.01033 0.335897,-0.01034 0.573608,-0.03617 0.237712,-0.02584 0.382406,-0.06201 0.144694,-0.04134 0.222209,-0.103353 0.08785,-0.06718 0.134358,-0.1757 0.05168,-0.113688 0.08268,-0.26355 0.02584,-0.09302 0.04651,-0.103353 0.02584,-0.01034 0.05168,0.108521 0.03617,0.160197 0.06718,0.356567 0.03101,0.191203 0.03101,0.372071 0,0.19637 -0.04651,0.335896 -0.03617,0.103353 -0.09302,0.206706 -0.05684,0.103353 -0.165365,0.186035 -0.103353,0.07752 -0.279053,0.124024 -0.170532,0.05168 -0.434082,0.05168 l -1.462443,-0.0155 q -0.149861,0 -0.403076,0 -0.253214,0 -0.527099,-0.0155 -0.268718,-0.0155 -0.521932,-0.05168 -0.248047,-0.04134 -0.392741,-0.129191 -0.144694,-0.08268 -0.232544,-0.211874 -0.08785,-0.129191 -0.139526,-0.279052 -0.04651,-0.15503 -0.06201,-0.315227 -0.0155,-0.165364 -0.01034,-0.320393 0,-0.06718 0.0052,-0.1757 0.0052,-0.108521 0.01033,-0.237712 0.01034,-0.134359 0.02584,-0.289388 0.0155,-0.155029 0.03617,-0.315226 0.0052,-0.02067 0.0052,-0.05168 0.0052,-0.03617 -0.0052,-0.06718 -0.0052,-0.03101 -0.03617,-0.05168 -0.02584,-0.02067 -0.08268,-0.02067 -0.05168,0 -0.103352,0.05684 -0.05168,0.05168 -0.07751,0.149862 -0.05684,0.206706 -0.134359,0.465088 -0.07751,0.253214 -0.186035,0.516764 -0.103353,0.26355 -0.242879,0.511597 -0.139527,0.242879 -0.320394,0.439249 -0.1757,0.191203 -0.397909,0.310059 -0.222208,0.118856 -0.496093,0.118856 -0.532268,0 -1.07487,0.0052 -0.537435,0.0052 -1.157552,0 -0.26355,0 -0.521932,-0.02067 -0.258382,-0.02067 -0.496094,-0.07752 -0.237711,-0.05168 -0.444417,-0.139526 -0.201538,-0.09302 -0.3514,-0.232544 -0.227376,-0.206706 -0.341064,-0.496094 -0.113688,-0.294556 -0.113688,-0.604614 0,-0.273885 0.07751,-0.532267 0.08268,-0.258383 0.227376,-0.475424 0.222209,-0.330729 0.568441,-0.511596 0.3514,-0.180868 0.738973,-0.180868 0.217041,0 0.423747,0.05684 0.211873,0.05684 0.37207,0.1757 0.165365,0.118856 0.26355,0.304891 0.09819,0.186035 0.09819,0.444417 0,0.196371 -0.07235,0.387574 -0.06718,0.186035 -0.217041,0.335897 -0.113688,0.113688 -0.273885,0.175699 -0.155029,0.06201 -0.335897,0.06201 -0.366902,0 -0.625284,-0.180867 -0.258383,-0.180868 -0.366903,-0.521932 -0.02584,-0.06718 -0.06201,0 -0.06718,0.118855 -0.08268,0.206705 -0.0155,0.08785 -0.0155,0.165365 0,0.253214 0.144694,0.408244 0.144694,0.149861 0.37207,0.232544 0.227377,0.07751 0.506429,0.103353 0.284221,0.02067 0.558106,0.02067 0.289388,0 0.63562,0 0.3514,-0.0052 0.661458,-0.0052 z m -3.116089,-1.596801 q -0.01033,0.0155 -0.0155,0.03101 0,0.0155 0.01034,0.04134 0.03617,0.09302 0.08785,0.186035 0.05168,0.08785 0.129191,0.165365 0.07751,0.07235 0.180867,0.118855 0.103353,0.04134 0.242879,0.04134 0.180868,0 0.279053,-0.09819 0.09819,-0.09819 0.09819,-0.294555 0,-0.196371 -0.149861,-0.315227 -0.144694,-0.124023 -0.361735,-0.124023 -0.108521,0 -0.248047,0.05168 -0.139526,0.04651 -0.253215,0.196371 z"
         style="font-style:normal;font-variant:normal;font-weight:normal;font-stretch:normal;font-size:10.58333302px;font-family:Pehlevi;-inkscape-font-specification:'Pehlevi, Normal';font-variant-ligatures:normal;font-variant-caps:normal;font-variant-numeric:normal;font-feature-settings:normal;text-align:start;writing-mode:lr-tb;text-anchor:start;fill:#cc0000;fill-opacity:1;stroke-width:0.26458332"
         id="path4547" />
      <path
         d="m 80.912745,71.723971 q 0.01033,-0.04651 0.03101,-0.04134 0.02067,0 0.03101,0.04651 0.04134,0.149861 0.06201,0.346232 0.02067,0.191203 0.02067,0.387573 0,0.103353 -0.01033,0.191203 -0.01034,0.08268 -0.04134,0.1757 -0.05168,0.165364 -0.165365,0.26355 -0.10852,0.09302 -0.253214,0.144694 -0.139527,0.04651 -0.299724,0.06201 -0.160197,0.0155 -0.310058,0.0155 -0.315227,0 -0.594279,-0.09302 -0.279053,-0.09819 -0.5271,-0.299724 -0.02067,-0.02067 -0.04134,0 -0.19637,0.180868 -0.45992,0.294556 -0.258382,0.113688 -0.583944,0.113688 -0.19637,0 -0.418579,-0.05684 -0.222209,-0.05168 -0.408244,-0.232544 -0.118856,-0.118856 -0.19637,-0.268717 -0.07752,-0.15503 -0.07752,-0.356568 0,-0.222208 0.06718,-0.428914 0.07235,-0.211873 0.206706,-0.37207 0.134359,-0.165365 0.330729,-0.26355 0.196371,-0.09819 0.454753,-0.09819 0.232544,0 0.45992,0.113688 0.227376,0.10852 0.496094,0.377238 0.03617,0.03617 0.05168,-0.02584 0.0155,-0.08785 0.0155,-0.155029 0.0052,-0.07235 -0.0052,-0.149861 -0.0052,-0.03617 -0.02067,-0.108521 -0.0155,-0.07751 -0.06201,-0.165365 -0.04651,-0.09302 -0.129191,-0.186035 -0.08268,-0.09302 -0.211873,-0.165364 -0.07235,-0.04134 -0.196371,-0.07235 -0.124023,-0.03101 -0.273885,-0.03101 -0.304891,0 -0.521932,0.113688 -0.217041,0.10852 -0.434082,0.299723 -0.03617,0.03617 -0.03617,-0.02067 0.0052,-0.07752 0.01033,-0.1757 0.01034,-0.103353 0.03617,-0.201538 0.02584,-0.103353 0.07235,-0.196371 0.04651,-0.09302 0.124023,-0.155029 0.217041,-0.165365 0.496094,-0.222209 0.28422,-0.05684 0.552938,-0.05684 0.361735,0 0.682129,0.149862 0.320393,0.144694 0.521931,0.470255 0.07235,0.118856 0.118856,0.284221 0.04651,0.165364 0.04651,0.356567 0,0.211874 -0.04134,0.423747 -0.04134,0.206706 -0.129191,0.423747 -0.0155,0.03617 0.0155,0.04651 0.165364,0.08268 0.366902,0.134359 0.206706,0.04651 0.377238,0.04651 0.08268,0 0.1757,-0.0052 0.09302,-0.01033 0.1757,-0.03617 0.08785,-0.02584 0.160197,-0.07235 0.07235,-0.05168 0.124023,-0.129191 0.06201,-0.09302 0.09819,-0.211874 0.04134,-0.124023 0.06718,-0.227376 z m -2.568319,0.738973 q 0.02067,-0.02067 0,-0.04651 -0.222208,-0.222208 -0.408243,-0.330729 -0.186036,-0.113688 -0.341065,-0.124023 -0.08268,-0.0052 -0.165364,0.01034 -0.08268,0.0155 -0.149862,0.05684 -0.06201,0.03617 -0.103353,0.103353 -0.04134,0.06201 -0.04134,0.155029 0,0.103353 0.06718,0.1757 0.06718,0.07235 0.165365,0.113688 0.09818,0.04134 0.201538,0.06201 0.10852,0.0155 0.186035,0.0155 0.160197,0 0.304891,-0.04134 0.149862,-0.04651 0.28422,-0.149862 z"
         style="font-style:normal;font-variant:normal;font-weight:normal;font-stretch:normal;font-size:10.58333302px;font-family:Pehlevi;-inkscape-font-specification:'Pehlevi, Normal';font-variant-ligatures:normal;font-variant-caps:normal;font-variant-numeric:normal;font-feature-settings:normal;text-align:start;writing-mode:lr-tb;text-anchor:start;fill:#cc0000;fill-opacity:1;stroke-width:0.26458332"
         id="path4549" />
      <path
         d="m 82.271835,71.470757 q 0.06718,-0.04134 0.06718,0.02584 0,0.1757 0.05168,0.3514 0.05168,0.170532 0.160197,0.310058 0.113688,0.139526 0.28422,0.227376 0.170533,0.08785 0.408244,0.08785 0.165365,0 0.310059,-0.04134 0.144694,-0.04651 0.253214,-0.134359 0.108521,-0.09302 0.170533,-0.222208 0.06201,-0.129191 0.06201,-0.294556 0,-0.248047 -0.09819,-0.434082 -0.09302,-0.186035 -0.26355,-0.310058 -0.165364,-0.129192 -0.392741,-0.186036 -0.227376,-0.06201 -0.490926,-0.05684 -0.149861,0.0052 -0.320394,0.04134 -0.170532,0.03101 -0.351399,0.103353 -0.1757,0.07235 -0.356568,0.196371 -0.180867,0.124023 -0.351399,0.304891 -0.05684,0.05684 -0.07751,0.05168 -0.0155,-0.0052 -0.01034,-0.06718 0,-0.04651 0.01034,-0.103353 0.0155,-0.06201 0.03101,-0.124023 0.0155,-0.06718 0.03617,-0.129192 0.02067,-0.06718 0.04651,-0.113688 0.113688,-0.237711 0.273885,-0.408244 0.160197,-0.170532 0.361735,-0.273885 0.201538,-0.103352 0.428915,-0.149861 0.232543,-0.05168 0.485758,-0.05168 0.37207,0 0.682129,0.09302 0.310058,0.09302 0.568441,0.310058 0.28422,0.232544 0.45992,0.599447 0.180867,0.366903 0.180867,0.821655 0,0.335897 -0.118855,0.604615 -0.118856,0.268717 -0.320394,0.45992 -0.201538,0.186035 -0.465088,0.28422 -0.26355,0.103353 -0.54777,0.103353 -0.149862,0 -0.304891,-0.02584 -0.149862,-0.02584 -0.289388,-0.08268 -0.139527,-0.05168 -0.26355,-0.124024 -0.118856,-0.07752 -0.201538,-0.180867 -0.0155,-0.02067 -0.03617,-0.03617 -0.0155,-0.0155 -0.02067,0.05684 -0.0052,0.170532 -0.0155,0.403076 -0.0052,0.232544 -0.01033,0.485759 -0.0052,0.258382 -0.01034,0.521932 -0.0052,0.26355 -0.0052,0.496093 0,0.237712 0,0.423747 0,0.191203 0.0052,0.299723 0.0052,0.09819 0.01034,0.191203 0.01033,0.09302 0.04134,0.170532 0.03101,0.08268 0.09302,0.144694 0.06718,0.06201 0.186035,0.09302 0.07752,0.02067 0.180868,0.02584 0.10852,0.01034 0.253214,-0.01033 0.05168,-0.01033 0.05684,0.0155 0.0052,0.02584 -0.04134,0.05168 -0.149861,0.08785 -0.361735,0.149862 -0.211873,0.06201 -0.475423,0.06201 -0.180867,0 -0.356567,-0.09302 -0.170532,-0.08785 -0.304891,-0.253214 -0.08785,-0.108521 -0.129191,-0.24288 -0.03617,-0.134358 -0.04134,-0.268717 -0.0052,-0.139526 -0.01034,-0.361735 0,-0.222209 0,-0.558105 0.0052,-0.33073 0.0155,-0.785482 0.0155,-0.449585 0.04134,-1.049032 0.01034,-0.201538 0.0155,-0.403076 0.01034,-0.201538 0.01034,-0.397908 0,-0.05685 0.01033,-0.09302 0.0155,-0.03617 0.07235,-0.07235 z"
         style="font-style:normal;font-variant:normal;font-weight:normal;font-stretch:normal;font-size:10.58333302px;font-family:Pehlevi;-inkscape-font-specification:'Pehlevi, Normal';font-variant-ligatures:normal;font-variant-caps:normal;font-variant-numeric:normal;font-feature-settings:normal;text-align:start;writing-mode:lr-tb;text-anchor:start;fill:#cc0000;fill-opacity:1;stroke-width:0.26458332"
         id="path4551" />
      <path
         d="m 88.478175,73.925387 q -0.03617,0.651123 -0.237711,1.121379 -0.201538,0.470255 -0.563273,0.780314 -0.273885,0.232544 -0.578776,0.361735 -0.299724,0.134358 -0.625285,0.201538 -0.165365,0.03101 -0.330729,0.05168 -0.165365,0.02067 -0.335897,0.02584 -0.170532,0.01034 -0.356567,0.01034 -0.186036,0.0052 -0.392741,0.0052 -0.1757,0 -0.366903,-0.0052 -0.191203,-0.0052 -0.377238,-0.04134 -0.186035,-0.03101 -0.3514,-0.108521 -0.165364,-0.07751 -0.289388,-0.222209 -0.356567,-0.434082 -0.201538,-1.369425 0.06718,-0.382406 0.201538,-0.645955 0.134359,-0.26355 0.273885,-0.459921 0.04134,-0.05168 0.09302,-0.02067 l 0.728638,0.408244 q 0.03101,0.0155 0.04651,0.04134 0.0155,0.02584 -0.02584,0.06718 -0.118856,0.118856 -0.237711,0.237712 -0.118856,0.124023 -0.227377,0.258382 -0.10852,0.139526 -0.191202,0.28422 -0.08268,0.149862 -0.118856,0.320394 -0.0155,0.07235 0.05168,0.108521 0.186035,0.08785 0.496094,0.113688 0.310059,0.02584 0.702799,0.02584 0.06201,0 0.15503,-0.0052 0.09819,0 0.19637,-0.0052 0.09819,0 0.180868,-0.0052 0.08785,0 0.134358,-0.0052 0.366903,-0.03617 0.640788,-0.09302 0.273885,-0.05684 0.465088,-0.170532 0.191203,-0.113689 0.310059,-0.294556 0.118855,-0.180868 0.180867,-0.45992 0.06718,-0.279053 0.08268,-0.671794 0.0155,-0.392741 0,-0.930176 0,-0.08785 -0.01033,-0.129191 -0.01033,-0.04651 -0.02584,-0.06201 -0.0155,-0.0155 -0.03617,-0.0052 -0.02067,0.0052 -0.04651,0.02584 -0.222209,0.165365 -0.449585,0.258382 -0.227377,0.08785 -0.506429,0.08785 -0.201538,0 -0.346233,-0.06718 -0.139526,-0.07235 -0.237711,-0.170532 -0.09819,-0.103353 -0.160197,-0.217041 -0.06201,-0.113689 -0.09819,-0.196371 -0.330729,-0.707967 -0.470256,-1.121378 -0.134358,-0.418579 -0.08268,-0.568441 0.04651,-0.149862 0.160197,-0.26355 0.113688,-0.113688 0.26355,-0.186035 0.155029,-0.07751 0.320394,-0.113688 0.170532,-0.04134 0.325561,-0.04134 0.04134,0 0.07235,0.0052 0.03617,0 0.06201,0.0052 0.08268,0.01034 0.07751,0.04134 0,0.03101 -0.05168,0.04134 -0.0155,0.0052 -0.07235,0.03101 -0.05168,0.02067 -0.113688,0.08785 -0.06201,0.06201 -0.108521,0.1757 -0.04651,0.113688 -0.04651,0.294556 0,0.08268 0.0155,0.201538 0.02067,0.113688 0.05685,0.227376 0.04651,0.165365 0.113688,0.341064 0.06718,0.170533 0.129191,0.320394 0.06718,0.144694 0.118856,0.248047 0.05168,0.103353 0.06718,0.134359 0.04134,0.07235 0.10852,0.113688 0.07235,0.04134 0.15503,0.04134 0.09819,0 0.232544,-0.06718 0.139526,-0.07235 0.294555,-0.253215 0.258382,-0.289388 0.289388,-0.971517 0.0052,-0.124023 0.01034,-0.222208 0.0052,-0.09819 0.0052,-0.201538 0.0052,-0.103353 0.0052,-0.237712 0.0052,-0.139526 0.01034,-0.341064 0,-0.05168 0.01033,-0.06718 0.0155,-0.02067 0.06718,0.02067 l 0.764811,0.604614 q 0.04651,0.03617 0.04651,0.108521 l -0.0052,1.255737 q 0,0.201538 -0.0052,0.444417 0,0.242879 -0.0052,0.496094 -0.0052,0.253214 -0.0155,0.506429 -0.0052,0.253214 -0.02067,0.475423 z"
         style="font-style:normal;font-variant:normal;font-weight:normal;font-stretch:normal;font-size:10.58333302px;font-family:Pehlevi;-inkscape-font-specification:'Pehlevi, Normal';font-variant-ligatures:normal;font-variant-caps:normal;font-variant-numeric:normal;font-feature-settings:normal;text-align:start;writing-mode:lr-tb;text-anchor:start;fill:#cc0000;fill-opacity:1;stroke-width:0.26458332"
         id="path4553" />
      <path
         d="m 90.7261,73.315605 q -0.248047,0 -0.465088,-0.04651 -0.211873,-0.04651 -0.387573,-0.113688 -0.1757,-0.07235 -0.304891,-0.155029 -0.129191,-0.08268 -0.19637,-0.155029 -0.258382,-0.258383 -0.356568,-0.552938 -0.09302,-0.294556 -0.09819,-0.563273 0,-0.377238 0.124024,-0.682129 0.124023,-0.304891 0.346232,-0.521932 0.227376,-0.217041 0.542602,-0.335897 0.315226,-0.118856 0.697632,-0.118856 0.304891,0 0.542603,0.08268 0.237711,0.07751 0.377237,0.237711 0.03617,0.03617 0.05685,0.09819 0.02584,0.06201 0,0.165365 l -0.124024,0.558105 q -0.01033,0.03101 -0.03101,0.03101 -0.0155,0 -0.02584,-0.03101 -0.07235,-0.258382 -0.26355,-0.397908 -0.186035,-0.139526 -0.454752,-0.139526 -0.578776,0 -0.785482,0.45992 -0.07235,0.155029 -0.07235,0.346232 0,0.160197 0.04651,0.28422 0.05168,0.134359 0.139526,0.242879 0.08785,0.108521 0.227376,0.186036 0.144694,0.07751 0.341065,0.124023 0.19637,0.04134 0.465088,0.04134 0.170532,0 0.397908,-0.02584 0.227376,-0.03101 0.475423,-0.09302 0.160197,-0.03617 0.320394,-0.09819 0.160197,-0.06201 0.310059,-0.144694 0.149861,-0.08785 0.279053,-0.19637 0.129191,-0.113688 0.232543,-0.248047 0.04651,-0.06201 0.07235,-0.03617 0.02584,0.02067 0.0155,0.05684 -0.031,0.180868 -0.10852,0.382406 -0.07752,0.19637 -0.191203,0.387573 -0.113688,0.186035 -0.26355,0.356568 -0.149861,0.165364 -0.330729,0.28422 -0.186035,0.113688 -0.377238,0.180868 -0.191203,0.06718 -0.387573,0.09819 -0.19637,0.03617 -0.392741,0.04134 -0.19637,0.01034 -0.392741,0.01034 z"
         style="font-style:normal;font-variant:normal;font-weight:normal;font-stretch:normal;font-size:10.58333302px;font-family:Pehlevi;-inkscape-font-specification:'Pehlevi, Normal';font-variant-ligatures:normal;font-variant-caps:normal;font-variant-numeric:normal;font-feature-settings:normal;text-align:start;writing-mode:lr-tb;text-anchor:start;fill:#cc0000;fill-opacity:1;stroke-width:0.26458332"
         id="path4555" />
      <path
         d="m 93.092879,70.747287 q 0.0155,-0.118856 0.03101,-0.160197 0.0155,-0.04651 0.07235,-0.09302 l 0.754476,-0.63562 q 0.04134,-0.03101 0.05168,-0.01033 0.01033,0.02067 0.0052,0.06201 -0.01033,0.180868 -0.02067,0.449585 -0.0052,0.268718 -0.0155,0.542603 -0.0052,0.268717 -0.01033,0.501261 -0.0052,0.227377 -0.0052,0.330729 0,0.09819 0.02584,0.09819 0.03101,0 0.06201,-0.06201 0.07752,-0.149862 0.191203,-0.335897 0.113688,-0.186035 0.248047,-0.377238 0.139526,-0.191203 0.294556,-0.37207 0.155029,-0.186035 0.315226,-0.325562 0.165364,-0.144694 0.320394,-0.227376 0.160197,-0.08785 0.310058,-0.09302 0.02067,0 0.05168,0.01034 0.03617,0.01033 0.08785,0.04651 0.05168,0.03617 0.118855,0.103352 0.07235,0.06718 0.165365,0.1757 0.03617,0.04134 0.04651,0.09819 0.0155,0.05685 -0.05684,0.08785 -0.144694,0.06718 -0.289388,0.144694 -0.144694,0.07235 -0.299724,0.180868 -0.149861,0.10852 -0.315226,0.258382 -0.165364,0.149862 -0.3514,0.366903 -0.103352,0.113688 -0.103352,0.26355 0,0.103352 0.06201,0.201538 0.06201,0.09819 0.180868,0.170532 0.10852,0.07235 0.330729,0.113688 0.227376,0.04134 0.480591,0.06201 0.258382,0.0155 0.506429,0.02067 0.253214,0.0052 0.413411,0.0052 0.454753,0 0.785482,-0.01033 0.330729,-0.01034 0.563273,-0.03101 0.237712,-0.02584 0.382406,-0.06718 0.149861,-0.04651 0.232544,-0.10852 0.08785,-0.06718 0.134358,-0.180868 0.05168,-0.113688 0.08268,-0.263549 0.02584,-0.09302 0.04651,-0.103353 0.02067,-0.01034 0.04651,0.10852 0.03617,0.15503 0.06718,0.356568 0.03101,0.201538 0.03101,0.403076 0,0.07751 -0.01033,0.170532 -0.01034,0.09302 -0.03617,0.165365 -0.04651,0.139526 -0.118856,0.242879 -0.07235,0.09819 -0.191203,0.165364 -0.113688,0.06201 -0.294556,0.08785 -0.180867,0.03101 -0.444417,0.03101 l -1.477946,-0.0155 q -0.738973,-0.0052 -1.250569,-0.103353 -0.506429,-0.09819 -0.7028,-0.310058 -0.07235,-0.07752 -0.118856,-0.144694 -0.04651,-0.07235 -0.07751,-0.134359 -0.02584,-0.06718 -0.04134,-0.134359 -0.0155,-0.06718 -0.03101,-0.144694 -0.01034,-0.03617 -0.02584,-0.05168 -0.0155,-0.0155 -0.05684,0.04134 -0.02067,0.03101 -0.08785,0.134359 -0.06718,0.103353 -0.149861,0.227376 -0.07752,0.124023 -0.160197,0.242879 -0.08268,0.118856 -0.134359,0.1757 -0.08785,0.103353 -0.165364,0.165365 -0.07751,0.06718 -0.191203,0.06718 -0.129191,0 -0.186035,-0.09819 -0.05684,-0.09819 -0.06718,-0.237712 -0.0155,-0.26355 -0.02584,-0.485758 -0.0052,-0.222209 -0.0052,-0.465088 0,-0.248047 0.0052,-0.552938 0.0052,-0.310058 0.0155,-0.74414 z m 4.697388,-0.03617 q 0.02584,0.02584 0.02584,0.04134 0.0052,0.0155 -0.02067,0.04134 l -0.454752,0.454753 q -0.02584,0.02584 -0.04134,0.02584 -0.0155,-0.0052 -0.04134,-0.03101 l -0.449585,-0.449585 q -0.02584,-0.02584 -0.03101,-0.04134 0,-0.0155 0.02584,-0.04134 l 0.454752,-0.454753 q 0.02584,-0.02584 0.04134,-0.02067 0.0155,0 0.04134,0.02584 z"
         style="font-style:normal;font-variant:normal;font-weight:normal;font-stretch:normal;font-size:10.58333302px;font-family:Pehlevi;-inkscape-font-specification:'Pehlevi, Normal';font-variant-ligatures:normal;font-variant-caps:normal;font-variant-numeric:normal;font-feature-settings:normal;text-align:start;writing-mode:lr-tb;text-anchor:start;fill:#cc0000;fill-opacity:1;stroke-width:0.26458332"
         id="path4557" />
      <path
         d="m 100.99938,72.462944 q 0.0207,-0.02067 0,-0.04651 -0.22221,-0.222208 -0.40825,-0.330729 -0.18603,-0.113688 -0.34106,-0.124023 -0.0827,-0.0052 -0.16537,0.01034 -0.0827,0.0155 -0.149859,0.05684 -0.06201,0.03617 -0.103353,0.103353 -0.04134,0.06201 -0.04134,0.155029 0,0.103353 0.06718,0.1757 0.06718,0.07235 0.165364,0.113688 0.0982,0.04134 0.20154,0.06201 0.10852,0.0155 0.18603,0.0155 0.1602,0 0.3049,-0.04134 0.14986,-0.04651 0.28422,-0.149862 z m 1.63297,0.857829 q -0.63045,0 -1.12138,-0.397909 -0.0207,-0.02067 -0.0413,0 -0.19637,0.180868 -0.45992,0.294556 -0.25838,0.113688 -0.58394,0.113688 -0.19637,0 -0.41858,-0.05684 -0.222211,-0.05168 -0.408246,-0.232544 -0.118855,-0.118856 -0.19637,-0.268717 -0.07752,-0.15503 -0.07752,-0.356568 0,-0.222208 0.06718,-0.428914 0.07235,-0.211873 0.206705,-0.37207 0.134359,-0.165365 0.330729,-0.26355 0.196367,-0.09819 0.454757,-0.09819 0.23254,0 0.45992,0.113688 0.22737,0.10852 0.49609,0.377238 0.0362,0.03617 0.0517,-0.02584 0.0155,-0.08785 0.0155,-0.155029 0.005,-0.07235 -0.005,-0.149861 -0.005,-0.03617 -0.0207,-0.108521 -0.0155,-0.07751 -0.062,-0.165365 -0.0465,-0.09302 -0.12919,-0.186035 -0.0827,-0.09302 -0.21187,-0.165364 -0.0724,-0.04134 -0.19638,-0.07235 -0.12402,-0.03101 -0.27388,-0.03101 -0.30489,0 -0.521932,0.113688 -0.217041,0.10852 -0.434082,0.299723 -0.03617,0.03617 -0.03617,-0.02067 0.0052,-0.07752 0.01033,-0.1757 0.01034,-0.103353 0.03617,-0.201538 0.02584,-0.103353 0.07235,-0.196371 0.04651,-0.09302 0.124023,-0.155029 0.217041,-0.165365 0.496099,-0.222209 0.28422,-0.05684 0.55293,-0.05684 0.36174,0 0.68213,0.149862 0.3204,0.144694 0.52193,0.470255 0.0724,0.118856 0.11886,0.284221 0.0465,0.165364 0.0465,0.356567 0,0.211874 -0.0413,0.423747 -0.0413,0.206706 -0.12919,0.423747 -0.0155,0.03617 0.0155,0.04651 0.28939,0.134359 0.51676,0.160197 0.22738,0.02584 0.39791,0.02584 h 0.34107 q 0.20153,-0.01034 0.35656,-0.06201 0.1602,-0.05684 0.28422,-0.139526 0.12403,-0.08785 0.21704,-0.196371 0.0982,-0.113688 0.17054,-0.232544 0.0207,-0.03617 0,-0.03617 -0.0155,0 -0.062,0.01033 -0.18087,0.04134 -0.3514,-0.01033 -0.16537,-0.05168 -0.29973,-0.180868 -0.12919,-0.118856 -0.20154,-0.289388 -0.0672,-0.1757 -0.0775,-0.377238 -0.0103,-0.211873 0.0413,-0.392741 0.0568,-0.186035 0.18087,-0.341064 0.13436,-0.165365 0.33073,-0.253215 0.19637,-0.09302 0.41341,-0.103352 0.21704,-0.0155 0.43408,0.05168 0.22221,0.06201 0.40308,0.201538 0.15503,0.124023 0.22737,0.279053 0.0775,0.149861 0.093,0.330729 0.0207,0.180867 -0.005,0.387573 -0.0258,0.206706 -0.0672,0.43925 -0.0258,0.129191 0.005,0.237711 0.031,0.103353 0.0879,0.186036 0.0568,0.07751 0.12403,0.139526 0.0723,0.05684 0.12402,0.08785 0.11369,0.06718 0.29455,0.103353 0.18604,0.03617 0.38241,0.05684 0.19637,0.0155 0.38241,0.02067 0.1912,0 0.32039,0 0.45475,0 0.79065,-0.01033 0.3359,-0.01034 0.57361,-0.03617 0.23771,-0.02584 0.3824,-0.06201 0.1447,-0.04134 0.22221,-0.103353 0.0879,-0.06718 0.13436,-0.1757 0.0517,-0.113688 0.0827,-0.26355 0.0258,-0.09302 0.0465,-0.103353 0.0258,-0.01034 0.0517,0.108521 0.0362,0.160197 0.0672,0.356567 0.031,0.191203 0.031,0.372071 0,0.19637 -0.0465,0.335896 -0.0362,0.103353 -0.093,0.206706 -0.0569,0.103353 -0.16537,0.186035 -0.10335,0.07752 -0.27905,0.124024 -0.17053,0.05168 -0.43408,0.05168 l -1.35393,-0.0155 q -0.10335,0 -0.25838,0 -0.14986,0 -0.32556,-0.0052 -0.1757,0 -0.36173,-0.01034 -0.18604,-0.01033 -0.35657,-0.03101 -0.17053,-0.02067 -0.31523,-0.05684 -0.13952,-0.03617 -0.22737,-0.09302 -0.10852,-0.06718 -0.18604,-0.155029 -0.0775,-0.09302 -0.12919,-0.191203 -0.0465,-0.103353 -0.0775,-0.206706 -0.0258,-0.108521 -0.0362,-0.211873 -0.005,-0.04134 -0.0155,-0.07235 -0.005,-0.03617 -0.0362,-0.03101 -0.0258,0.0052 -0.0413,0.03101 -0.0103,0.02584 -0.0258,0.06201 -0.10336,0.206706 -0.23255,0.387574 -0.12919,0.180867 -0.28939,0.315226 -0.15503,0.134359 -0.34623,0.211873 -0.18603,0.07752 -0.41341,0.07752 z m 5.04879,-3.059245 q -0.0258,-0.02584 -0.0413,-0.02584 -0.0155,-0.0052 -0.0413,0.02067 l -0.45476,0.454753 q -0.0258,0.02584 -0.0258,0.04134 0.005,0.0155 0.031,0.04134 l 0.44959,0.449585 q 0.0258,0.02584 0.0413,0.03101 0.0155,0 0.0413,-0.02584 l 0.45475,-0.454753 q 0.0258,-0.02584 0.0207,-0.04134 0,-0.0155 -0.0258,-0.04134 z m -2.89388,0.718302 q 0.0775,-0.180867 0.0207,-0.310058 -0.0568,-0.129191 -0.16537,-0.201538 -0.18086,-0.118856 -0.34106,-0.134359 -0.1602,-0.02067 -0.28422,0.129191 -0.11886,0.149862 -0.12402,0.320394 0,0.170532 0.13435,0.310059 0.0982,0.07751 0.21188,0.10852 0.11369,0.03101 0.21704,0.0155 0.10852,-0.0155 0.19637,-0.07235 0.0879,-0.06201 0.13436,-0.165365 z"
         style="font-style:normal;font-variant:normal;font-weight:normal;font-stretch:normal;font-size:10.58333302px;font-family:Pehlevi;-inkscape-font-specification:'Pehlevi, Normal';font-variant-ligatures:normal;font-variant-caps:normal;font-variant-numeric:normal;font-feature-settings:normal;text-align:start;writing-mode:lr-tb;text-anchor:start;fill:#cc0000;fill-opacity:1;stroke-width:0.26458332"
         id="path4559" />
      <path
         d="m 116.38861,66.985242 q 0.0672,-0.155029 0.11369,-0.253214 0.0517,-0.09819 0.13953,-0.155029 0.0775,-0.05684 0.20154,-0.07752 0.12402,-0.02584 0.24288,-0.02584 0.062,0 0.12919,0.0052 0.0672,0 0.12402,0.01034 0.0517,0.01033 0.0672,0.03101 0.0207,0.0155 0.031,0.07235 0.0672,0.351399 0.13435,0.692464 0.0724,0.341064 0.1447,0.687296 0.0724,0.346232 0.14986,0.707967 0.0775,0.356568 0.16537,0.749309 0.0103,0.05684 0.031,0.06201 0.0207,0 0.062,-0.01034 0.13436,-0.03101 0.28422,-0.03101 0.15503,-0.0052 0.29973,0.03101 0.14986,0.03101 0.27388,0.108521 0.12919,0.07751 0.21704,0.206705 0.0724,0.108521 0.10852,0.242879 0.0413,0.134359 0.0413,0.26355 0,0.03101 -0.005,0.06201 0,0.02584 -0.005,0.05168 -0.0103,0.04134 -0.0258,0.04134 -0.0155,0 -0.0258,-0.03617 -0.005,-0.01033 -0.0258,-0.05684 -0.0207,-0.05168 -0.0827,-0.103353 -0.0568,-0.05168 -0.1602,-0.09302 -0.10335,-0.04134 -0.27388,-0.03617 -0.0568,0 -0.18604,0.0155 -0.12402,0.01033 -0.28938,0.05168 -0.0517,0.0155 -0.0362,0.06718 0.12919,0.475423 0.26355,0.930176 0.13436,0.449584 0.24805,0.816487 0.11886,0.361735 0.19637,0.61495 0.0827,0.248046 0.10852,0.320394 0.0103,0.04134 0.0258,0.09302 0.0155,0.05168 0.0155,0.103353 0,0.08785 -0.0413,0.160197 -0.0413,0.07752 -0.15503,0.07752 -0.0775,0 -0.21187,-0.03101 -0.13436,-0.03101 -0.30489,-0.09302 -0.17054,-0.06201 -0.36691,-0.149862 -0.1912,-0.08785 -0.39274,-0.206705 -0.23254,-0.139527 -0.49609,-0.320394 -0.25838,-0.186035 -0.47542,-0.408244 -0.21704,-0.227376 -0.36174,-0.485758 -0.14469,-0.26355 -0.14469,-0.547771 0,-0.232544 0.11369,-0.444417 0.11885,-0.217041 0.27905,-0.392741 0.16536,-0.1757 0.3359,-0.299723 0.17053,-0.129191 0.28422,-0.186035 0.0517,-0.02584 0.062,-0.04651 0.0103,-0.02584 -0.005,-0.08268 -0.0155,-0.07235 -0.0517,-0.222209 -0.031,-0.149862 -0.0723,-0.341064 -0.0362,-0.191203 -0.0775,-0.403077 -0.0413,-0.211873 -0.0827,-0.413411 -0.031,-0.149862 -0.0982,-0.01033 -0.41341,0.904337 -0.81648,1.855184 -0.39791,0.945678 -0.87334,1.922363 -0.11885,0.242879 -0.21187,0.418579 -0.0879,0.170532 -0.16536,0.294556 -0.0724,0.118855 -0.13436,0.19637 -0.0569,0.07752 -0.11369,0.129191 -0.0724,0.06201 -0.17053,0.108521 -0.093,0.04651 -0.19637,0.07235 -0.0982,0.03101 -0.19637,0.04134 -0.0982,0.0155 -0.17054,0.0155 -0.28938,0 -0.5581,-0.08268 -0.26355,-0.08268 -0.47026,-0.242879 -0.20153,-0.160197 -0.32039,-0.397908 -0.11886,-0.237712 -0.10852,-0.552938 0.005,-0.144694 0.0568,-0.284221 0.0517,-0.139526 0.13953,-0.253214 0.093,-0.118856 0.21704,-0.206706 0.12402,-0.09302 0.27389,-0.134358 0.031,-0.01034 0.0413,0.0052 0.0103,0.01033 -0.0155,0.03617 -0.0517,0.04651 -0.093,0.113688 -0.0413,0.06201 -0.0724,0.139526 -0.031,0.07235 -0.0465,0.149862 -0.0155,0.07751 -0.0155,0.139526 0,0.232544 0.11885,0.382406 0.12403,0.144694 0.26355,0.211873 0.1447,0.07235 0.29456,0.06201 0.15503,-0.0155 0.25838,-0.07752 0.0724,-0.04134 0.10852,-0.09819 0.0413,-0.05684 0.0827,-0.118856 0.15503,-0.253214 0.37724,-0.692464 0.22738,-0.43925 0.48576,-0.971517 0.26355,-0.537435 0.5426,-1.131714 0.27906,-0.594279 0.54777,-1.167887 0.16537,-0.356567 0.28939,-0.661458 0.12402,-0.304891 0.21187,-0.532268 z m 1.23507,4.919597 q 0.0517,0.0155 0.0413,-0.03617 -0.0103,-0.07235 -0.0413,-0.217041 -0.0258,-0.149862 -0.062,-0.330729 -0.0362,-0.186035 -0.0827,-0.382406 -0.0413,-0.19637 -0.0879,-0.366902 -0.0103,-0.02584 -0.0207,-0.03617 -0.005,-0.01034 -0.0465,0.01033 -0.36174,0.170533 -0.5116,0.33073 -0.14469,0.155029 -0.14986,0.268717 0,0.124024 0.093,0.242879 0.093,0.113688 0.23254,0.211874 0.1447,0.09819 0.31006,0.180867 0.17053,0.07751 0.32556,0.124024 z"
         style="font-style:normal;font-variant:normal;font-weight:normal;font-stretch:normal;font-size:10.58333302px;font-family:Pehlevi;-inkscape-font-specification:'Pehlevi, Normal';font-variant-ligatures:normal;font-variant-caps:normal;font-variant-numeric:normal;font-feature-settings:normal;text-align:start;writing-mode:lr-tb;text-anchor:start;fill:#cc0000;fill-opacity:1;stroke-width:0.26458332"
         id="path4561" />
      <path
         d="m 120.28502,71.470757 q 0.0672,-0.04134 0.0672,0.02584 0,0.1757 0.0517,0.3514 0.0517,0.170532 0.1602,0.310058 0.11369,0.139526 0.28422,0.227376 0.17053,0.08785 0.40825,0.08785 0.16536,0 0.31005,-0.04134 0.1447,-0.04651 0.25322,-0.134359 0.10852,-0.09302 0.17053,-0.222208 0.062,-0.129191 0.062,-0.294556 0,-0.248047 -0.0982,-0.434082 -0.093,-0.186035 -0.26355,-0.310058 -0.16537,-0.129192 -0.39274,-0.186036 -0.22738,-0.06201 -0.49093,-0.05684 -0.14986,0.0052 -0.32039,0.04134 -0.17054,0.03101 -0.3514,0.103353 -0.1757,0.07235 -0.35657,0.196371 -0.18087,0.124023 -0.3514,0.304891 -0.0568,0.05684 -0.0775,0.05168 -0.0155,-0.0052 -0.0103,-0.06718 0,-0.04651 0.0103,-0.103353 0.0155,-0.06201 0.031,-0.124023 0.0155,-0.06718 0.0362,-0.129192 0.0207,-0.06718 0.0465,-0.113688 0.11369,-0.237711 0.27389,-0.408244 0.1602,-0.170532 0.36173,-0.273885 0.20154,-0.103352 0.42892,-0.149861 0.23254,-0.05168 0.48576,-0.05168 0.37207,0 0.68213,0.09302 0.31005,0.09302 0.56844,0.310058 0.28422,0.232544 0.45992,0.599447 0.18086,0.366903 0.18086,0.821655 0,0.335897 -0.11885,0.604615 -0.11886,0.268717 -0.3204,0.45992 -0.20153,0.186035 -0.46508,0.28422 -0.26355,0.103353 -0.54777,0.103353 -0.14987,0 -0.30489,-0.02584 -0.14987,-0.02584 -0.28939,-0.08268 -0.13953,-0.05168 -0.26355,-0.124024 -0.11886,-0.07752 -0.20154,-0.180867 -0.0155,-0.02067 -0.0362,-0.03617 -0.0155,-0.0155 -0.0207,0.05684 -0.005,0.170532 -0.0155,0.403076 -0.005,0.232544 -0.0103,0.485759 -0.005,0.258382 -0.0103,0.521932 -0.005,0.26355 -0.005,0.496093 0,0.237712 0,0.423747 0,0.191203 0.005,0.299723 0.005,0.09819 0.0103,0.191203 0.0103,0.09302 0.0413,0.170532 0.031,0.08268 0.093,0.144694 0.0672,0.06201 0.18603,0.09302 0.0775,0.02067 0.18087,0.02584 0.10852,0.01034 0.25321,-0.01033 0.0517,-0.01033 0.0568,0.0155 0.005,0.02584 -0.0413,0.05168 -0.14987,0.08785 -0.36174,0.149862 -0.21187,0.06201 -0.47542,0.06201 -0.18087,0 -0.35657,-0.09302 -0.17053,-0.08785 -0.30489,-0.253214 -0.0879,-0.108521 -0.12919,-0.24288 -0.0362,-0.134358 -0.0413,-0.268717 -0.005,-0.139526 -0.0103,-0.361735 0,-0.222209 0,-0.558105 0.005,-0.33073 0.0155,-0.785482 0.0155,-0.449585 0.0414,-1.049032 0.0103,-0.201538 0.0155,-0.403076 0.0103,-0.201538 0.0103,-0.397908 0,-0.05685 0.0103,-0.09302 0.0155,-0.03617 0.0724,-0.07235 z"
         style="font-style:normal;font-variant:normal;font-weight:normal;font-stretch:normal;font-size:10.58333302px;font-family:Pehlevi;-inkscape-font-specification:'Pehlevi, Normal';font-variant-ligatures:normal;font-variant-caps:normal;font-variant-numeric:normal;font-feature-settings:normal;text-align:start;writing-mode:lr-tb;text-anchor:start;fill:#cc0000;fill-opacity:1;stroke-width:0.26458332"
         id="path4563" />
      <path
         d="m 127.40086,71.723971 q 0.0103,-0.04651 0.031,-0.04134 0.0207,0 0.031,0.04651 0.0414,0.149861 0.062,0.346232 0.0207,0.191203 0.0207,0.387573 0,0.103353 -0.0103,0.191203 -0.0103,0.08268 -0.0413,0.1757 -0.0517,0.165364 -0.16536,0.26355 -0.10853,0.09302 -0.25322,0.144694 -0.13953,0.04651 -0.29972,0.06201 -0.1602,0.0155 -0.31006,0.0155 -0.31523,0 -0.59428,-0.09302 -0.27905,-0.09819 -0.5271,-0.299724 -0.0207,-0.02067 -0.0413,0 -0.19637,0.180868 -0.45992,0.294556 -0.25838,0.113688 -0.58394,0.113688 -0.19638,0 -0.41858,-0.05684 -0.22221,-0.05168 -0.40825,-0.232544 -0.11885,-0.118856 -0.19637,-0.268717 -0.0775,-0.15503 -0.0775,-0.356568 0,-0.222208 0.0672,-0.428914 0.0723,-0.211873 0.2067,-0.37207 0.13436,-0.165365 0.33073,-0.26355 0.19637,-0.09819 0.45475,-0.09819 0.23255,0 0.45992,0.113688 0.22738,0.10852 0.4961,0.377238 0.0362,0.03617 0.0517,-0.02584 0.0155,-0.08785 0.0155,-0.155029 0.005,-0.07235 -0.005,-0.149861 -0.005,-0.03617 -0.0207,-0.108521 -0.0155,-0.07751 -0.062,-0.165365 -0.0465,-0.09302 -0.12919,-0.186035 -0.0827,-0.09302 -0.21188,-0.165364 -0.0723,-0.04134 -0.19637,-0.07235 -0.12402,-0.03101 -0.27388,-0.03101 -0.30489,0 -0.52193,0.113688 -0.21705,0.10852 -0.43409,0.299723 -0.0362,0.03617 -0.0362,-0.02067 0.005,-0.07752 0.0103,-0.1757 0.0103,-0.103353 0.0362,-0.201538 0.0258,-0.103353 0.0724,-0.196371 0.0465,-0.09302 0.12402,-0.155029 0.21704,-0.165365 0.49609,-0.222209 0.28422,-0.05684 0.55294,-0.05684 0.36174,0 0.68213,0.149862 0.32039,0.144694 0.52193,0.470255 0.0724,0.118856 0.11886,0.284221 0.0465,0.165364 0.0465,0.356567 0,0.211874 -0.0413,0.423747 -0.0414,0.206706 -0.1292,0.423747 -0.0155,0.03617 0.0155,0.04651 0.16536,0.08268 0.3669,0.134359 0.20671,0.04651 0.37724,0.04651 0.0827,0 0.1757,-0.0052 0.093,-0.01033 0.1757,-0.03617 0.0879,-0.02584 0.16019,-0.07235 0.0724,-0.05168 0.12403,-0.129191 0.062,-0.09302 0.0982,-0.211874 0.0413,-0.124023 0.0672,-0.227376 z m -2.56832,0.738973 q 0.0207,-0.02067 0,-0.04651 -0.22221,-0.222208 -0.40824,-0.330729 -0.18604,-0.113688 -0.34106,-0.124023 -0.0827,-0.0052 -0.16537,0.01034 -0.0827,0.0155 -0.14986,0.05684 -0.062,0.03617 -0.10335,0.103353 -0.0413,0.06201 -0.0413,0.155029 0,0.103353 0.0672,0.1757 0.0672,0.07235 0.16537,0.113688 0.0982,0.04134 0.20154,0.06201 0.10852,0.0155 0.18603,0.0155 0.1602,0 0.30489,-0.04134 0.14986,-0.04651 0.28422,-0.149862 z"
         style="font-style:normal;font-variant:normal;font-weight:normal;font-stretch:normal;font-size:10.58333302px;font-family:Pehlevi;-inkscape-font-specification:'Pehlevi, Normal';font-variant-ligatures:normal;font-variant-caps:normal;font-variant-numeric:normal;font-feature-settings:normal;text-align:start;writing-mode:lr-tb;text-anchor:start;fill:#cc0000;fill-opacity:1;stroke-width:0.26458332"
         id="path4565" />
      <path
         d="m 129.38524,70.897148 q -0.0568,0.01033 -0.0775,0 -0.0207,-0.01033 -0.0103,-0.05684 0.0103,-0.07235 0.0517,-0.19637 0.0465,-0.124024 0.10336,-0.227377 0.16536,-0.304891 0.36173,-0.335896 0.44442,-0.0052 0.79065,0.118855 0.3514,0.124024 0.58394,0.361735 0.23772,0.237712 0.3514,0.578776 0.11886,0.341065 0.0982,0.764812 -0.0155,0.346232 -0.18087,0.620117 -0.16019,0.268717 -0.40824,0.454752 -0.24288,0.186036 -0.5426,0.279053 -0.29456,0.09818 -0.57878,0.09818 -0.1912,0 -0.36174,-0.01033 -0.17053,-0.01033 -0.33589,-0.04134 -0.1602,-0.03101 -0.31523,-0.09302 -0.14986,-0.06201 -0.30489,-0.165364 -0.0879,-0.05684 -0.21187,-0.170533 -0.11886,-0.118855 -0.23255,-0.294555 -0.10852,-0.1757 -0.1912,-0.413412 -0.0775,-0.237711 -0.0775,-0.537434 0,-0.201539 0,-0.444418 0,-0.242879 0.005,-0.496094 0.0103,-0.253214 0.0155,-0.501261 0.0103,-0.253214 0.0258,-0.480591 0.0362,-0.651123 0.23772,-1.121378 0.20153,-0.470256 0.56327,-0.780314 0.13436,-0.113689 0.28939,-0.217041 0.16019,-0.108521 0.3514,-0.180868 0.19637,-0.07752 0.43408,-0.113688 0.23771,-0.04134 0.5271,-0.02584 0.0982,0.0052 0.21187,0.0155 0.11886,0.0052 0.22738,0.0155 0.11369,0.0052 0.21187,0.0155 0.0982,0.0052 0.1602,0.0052 0.39274,0 0.7028,-0.02584 0.31006,-0.02584 0.49609,-0.113688 0.0672,-0.03617 0.0517,-0.108521 -0.0413,-0.170532 -0.12402,-0.315226 -0.0775,-0.149862 -0.18604,-0.28422 -0.10852,-0.139527 -0.23254,-0.258382 -0.11886,-0.124024 -0.23255,-0.24288 -0.0413,-0.04134 -0.0258,-0.06718 0.0155,-0.02584 0.0465,-0.04134 l 0.72864,-0.408244 q 0.0517,-0.03101 0.093,0.02067 0.13952,0.19637 0.27388,0.45992 0.13436,0.26355 0.20154,0.645955 0.15503,0.935344 -0.20154,1.369426 -0.12402,0.144694 -0.28939,0.222208 -0.16536,0.07235 -0.35139,0.108521 -0.18604,0.03101 -0.37724,0.03617 -0.19121,0.0052 -0.36691,0.01034 -0.11368,0.0052 -0.2067,0.0052 -0.0879,-0.0052 -0.18087,-0.01033 -0.093,-0.0052 -0.2067,-0.0052 -0.11369,-0.0052 -0.27906,-0.0052 -0.36173,0.0155 -0.63045,0.06718 -0.26872,0.05168 -0.45992,0.165365 -0.1912,0.10852 -0.31523,0.294555 -0.12402,0.186035 -0.1912,0.475423 -0.062,0.284221 -0.0827,0.682129 -0.0155,0.397909 0,0.935344 0.005,0.248047 0.0155,0.516764 0.0155,0.26355 0.0982,0.490926 0.0827,0.222209 0.26355,0.37207 0.18603,0.149862 0.5426,0.170533 0.16536,0 0.34623,-0.04134 0.18087,-0.04651 0.3359,-0.134358 0.15503,-0.09302 0.25838,-0.222209 0.10335,-0.129191 0.11369,-0.294556 0.0103,-0.211873 -0.093,-0.408243 -0.10335,-0.196371 -0.29455,-0.325562 -0.19121,-0.134359 -0.45476,-0.186035 -0.25838,-0.05168 -0.5581,0.02584 z"
         style="font-style:normal;font-variant:normal;font-weight:normal;font-stretch:normal;font-size:10.58333302px;font-family:Pehlevi;-inkscape-font-specification:'Pehlevi, Normal';font-variant-ligatures:normal;font-variant-caps:normal;font-variant-numeric:normal;font-feature-settings:normal;text-align:start;writing-mode:lr-tb;text-anchor:start;fill:#cc0000;fill-opacity:1;stroke-width:0.26458332"
         id="path4567" />
      <path
         d="m 132.79588,67.45033 h 0.95085 v 5.787761 h -0.95085 z m 0,-2.253092 h 0.95085 v 1.204061 h -0.95085 z"
         style="font-style:normal;font-variant:normal;font-weight:normal;font-stretch:normal;font-size:10.58333302px;font-family:Pehlevi;-inkscape-font-specification:'Pehlevi, Normal';font-variant-ligatures:normal;font-variant-caps:normal;font-variant-numeric:normal;font-feature-settings:normal;text-align:start;writing-mode:lr-tb;text-anchor:start;fill:#cc0000;fill-opacity:1;stroke-width:0.26458332"
         id="path4569" />
      <path
         d="m 138.08755,72.137383 q 0.10852,0.06718 0.25838,0.10852 0.14986,0.03617 0.31522,0.05684 0.16537,0.02067 0.32557,0.02584 0.16536,0.0052 0.29972,0.0052 0.0672,0 0.1912,0 0.12403,0 0.26872,-0.0155 0.14469,-0.02067 0.28939,-0.06201 0.14986,-0.04651 0.25838,-0.134358 0.0982,-0.07752 0.15503,-0.222209 0.0568,-0.144694 0.0827,-0.294556 0.0258,-0.134358 0.062,0 0.0413,0.165365 0.0775,0.387574 0.0362,0.217041 0.0362,0.423746 0,0.222209 -0.0568,0.387573 -0.0517,0.160197 -0.13953,0.26355 -0.11886,0.144694 -0.31523,0.196371 -0.1912,0.05168 -0.45992,0.05684 -0.25838,0.0052 -0.50126,0 -0.23771,-0.0052 -0.50126,-0.01033 -0.12402,0 -0.31522,-0.0155 -0.18604,-0.01034 -0.38241,-0.05168 -0.1912,-0.03617 -0.35657,-0.103353 -0.16536,-0.06718 -0.24804,-0.186035 -0.0207,-0.02584 -0.0465,0 -0.18087,0.165365 -0.39274,0.253215 -0.20671,0.08268 -0.44959,0.09302 -0.24288,0.01034 -0.42891,-0.0155 -0.18604,-0.02067 -0.3359,-0.07235 -0.14986,-0.05684 -0.27389,-0.134358 -0.12402,-0.08268 -0.24287,-0.191203 -0.16537,-0.15503 -0.26355,-0.413412 -0.093,-0.263549 -0.10336,-0.630452 -0.005,-0.09819 0,-0.217041 0.0103,-0.118856 0.0258,-0.237712 0.0155,-0.118855 0.0362,-0.232544 0.0258,-0.113688 0.0517,-0.19637 0.0258,-0.08785 0.0724,-0.211873 0.0517,-0.124024 0.10852,-0.248047 0.0568,-0.129191 0.11885,-0.232544 0.062,-0.108521 0.11886,-0.160197 0.0258,-0.02584 0.0465,-0.03617 0.0258,-0.0155 0.0517,0.0052 l 0.49093,0.341064 q 0.0568,0.04134 0.0568,0.07752 0,0.03101 -0.0413,0.08785 -0.0362,0.04651 -0.12402,0.170532 -0.0827,0.124024 -0.18087,0.268718 -0.093,0.139526 -0.18086,0.268717 -0.0879,0.129191 -0.12403,0.186035 -0.0413,0.05684 -0.0672,0.124024 -0.0207,0.06201 -0.0207,0.134358 0,0.26355 0.21704,0.413412 0.1602,0.103353 0.39791,0.155029 0.24288,0.04651 0.4961,0.04651 0.19637,0 0.3669,-0.02584 0.1757,-0.03101 0.31522,-0.09302 0.031,-0.01033 0.0362,-0.02584 0.0103,-0.02067 0.0103,-0.05684 0,-0.165365 0.005,-0.356568 0.0103,-0.191202 0.0207,-0.382405 0.0155,-0.191203 0.0258,-0.37207 0.0155,-0.186036 0.0258,-0.341065 0.005,-0.04651 0.0103,-0.07235 0.0103,-0.02584 0.0517,-0.06201 l 0.64595,-0.542602 q 0.0775,-0.06718 0.0775,0.03617 -0.0103,0.206706 -0.031,0.475424 -0.0155,0.263549 -0.031,0.516764 -0.0155,0.253214 -0.0258,0.454752 -0.0103,0.196371 -0.0103,0.26355 0,0.08785 0.0258,0.201538 0.031,0.108521 0.12403,0.165365 z m 0.0155,2.862874 q -0.0413,-0.06201 0,-0.09819 0.0465,-0.03617 0.0982,0.0052 0.21705,0.165365 0.40825,0.170532 0.1912,0.01034 0.41858,-0.08785 0.22737,-0.09302 0.37723,-0.26355 0.14987,-0.165365 0.20154,-0.304891 0.0568,-0.149862 0.0103,-0.268718 -0.0413,-0.113688 -0.16537,-0.160197 -0.0723,-0.02067 -0.16019,0.0052 -0.0879,0.03101 -0.1757,0.08268 -0.0879,0.05684 -0.17054,0.129191 -0.0775,0.07235 -0.12919,0.139527 -0.031,0.05168 -0.0775,0.0052 -0.1912,-0.211873 -0.23771,-0.387573 -0.0465,-0.170532 -0.005,-0.268717 0.0207,-0.05168 0.0827,-0.09819 0.062,-0.04651 0.14986,-0.07751 0.093,-0.02584 0.20671,-0.02584 0.11886,0 0.24288,0.03617 0.10335,0.02584 0.21704,0.07235 0.11886,0.05168 0.23254,0.124024 0.11369,0.07751 0.21188,0.170532 0.10335,0.09819 0.18086,0.217041 0.14987,0.248047 0.19121,0.475423 0.0465,0.227376 -0.031,0.449585 -0.0775,0.211873 -0.24288,0.361735 -0.16536,0.155029 -0.3669,0.237712 -0.20154,0.08268 -0.41858,0.08785 -0.21187,0.01034 -0.38757,-0.07751 -0.0517,-0.02067 -0.11369,-0.06201 -0.062,-0.03617 -0.14469,-0.10852 -0.0775,-0.07235 -0.18087,-0.186036 -0.0982,-0.113688 -0.22221,-0.294555 z"
         style="font-style:normal;font-variant:normal;font-weight:normal;font-stretch:normal;font-size:10.58333302px;font-family:Pehlevi;-inkscape-font-specification:'Pehlevi, Normal';font-variant-ligatures:normal;font-variant-caps:normal;font-variant-numeric:normal;font-feature-settings:normal;text-align:start;writing-mode:lr-tb;text-anchor:start;fill:#cc0000;fill-opacity:1;stroke-width:0.26458332"
         id="path4571" />
      <path
         d="m 145.28091,71.723971 q 0.0103,-0.04651 0.031,-0.04134 0.0207,0 0.031,0.04651 0.0413,0.149861 0.062,0.346232 0.0207,0.191203 0.0207,0.387573 0,0.103353 -0.0103,0.191203 -0.0103,0.08268 -0.0413,0.1757 -0.0517,0.165364 -0.16536,0.26355 -0.10852,0.09302 -0.25322,0.144694 -0.13952,0.04651 -0.29972,0.06201 -0.1602,0.0155 -0.31006,0.0155 -0.31522,0 -0.59428,-0.09302 -0.27905,-0.09819 -0.5271,-0.299724 -0.0207,-0.02067 -0.0413,0 -0.19637,0.180868 -0.45992,0.294556 -0.25838,0.113688 -0.58394,0.113688 -0.19637,0 -0.41858,-0.05684 -0.22221,-0.05168 -0.40824,-0.232544 -0.11886,-0.118856 -0.19638,-0.268717 -0.0775,-0.15503 -0.0775,-0.356568 0,-0.222208 0.0672,-0.428914 0.0724,-0.211873 0.20671,-0.37207 0.13435,-0.165365 0.33072,-0.26355 0.19637,-0.09819 0.45476,-0.09819 0.23254,0 0.45992,0.113688 0.22737,0.10852 0.49609,0.377238 0.0362,0.03617 0.0517,-0.02584 0.0155,-0.08785 0.0155,-0.155029 0.005,-0.07235 -0.005,-0.149861 -0.005,-0.03617 -0.0207,-0.108521 -0.0155,-0.07751 -0.062,-0.165365 -0.0465,-0.09302 -0.12919,-0.186035 -0.0827,-0.09302 -0.21187,-0.165364 -0.0724,-0.04134 -0.19637,-0.07235 -0.12403,-0.03101 -0.27389,-0.03101 -0.30489,0 -0.52193,0.113688 -0.21704,0.10852 -0.43408,0.299723 -0.0362,0.03617 -0.0362,-0.02067 0.005,-0.07752 0.0103,-0.1757 0.0103,-0.103353 0.0362,-0.201538 0.0258,-0.103353 0.0724,-0.196371 0.0465,-0.09302 0.12402,-0.155029 0.21704,-0.165365 0.4961,-0.222209 0.28422,-0.05684 0.55293,-0.05684 0.36174,0 0.68213,0.149862 0.3204,0.144694 0.52193,0.470255 0.0724,0.118856 0.11886,0.284221 0.0465,0.165364 0.0465,0.356567 0,0.211874 -0.0413,0.423747 -0.0413,0.206706 -0.12919,0.423747 -0.0155,0.03617 0.0155,0.04651 0.16536,0.08268 0.3669,0.134359 0.20671,0.04651 0.37724,0.04651 0.0827,0 0.1757,-0.0052 0.093,-0.01033 0.1757,-0.03617 0.0879,-0.02584 0.1602,-0.07235 0.0723,-0.05168 0.12402,-0.129191 0.062,-0.09302 0.0982,-0.211874 0.0413,-0.124023 0.0672,-0.227376 z m -2.56832,0.738973 q 0.0207,-0.02067 0,-0.04651 -0.22221,-0.222208 -0.40825,-0.330729 -0.18603,-0.113688 -0.34106,-0.124023 -0.0827,-0.0052 -0.16537,0.01034 -0.0827,0.0155 -0.14986,0.05684 -0.062,0.03617 -0.10335,0.103353 -0.0413,0.06201 -0.0413,0.155029 0,0.103353 0.0672,0.1757 0.0672,0.07235 0.16536,0.113688 0.0982,0.04134 0.20154,0.06201 0.10852,0.0155 0.18604,0.0155 0.16019,0 0.30489,-0.04134 0.14986,-0.04651 0.28422,-0.149862 z"
         style="font-style:normal;font-variant:normal;font-weight:normal;font-stretch:normal;font-size:10.58333302px;font-family:Pehlevi;-inkscape-font-specification:'Pehlevi, Normal';font-variant-ligatures:normal;font-variant-caps:normal;font-variant-numeric:normal;font-feature-settings:normal;text-align:start;writing-mode:lr-tb;text-anchor:start;fill:#cc0000;fill-opacity:1;stroke-width:0.26458332"
         id="path4573" />
    </g>
  </g>
</svg>
